<?xml version="1.0" encoding="utf-8"?>
<!-- Generator: Adobe Illustrator 24.3.0, SVG Export Plug-In . SVG Version: 6.00 Build 0)  -->
<svg version="1.1" id="color" xmlns="http://www.w3.org/2000/svg" xmlns:xlink="http://www.w3.org/1999/xlink" x="0px" y="0px"
	 viewBox="0 0 100 100" style="enable-background:new 0 0 100 100;" xml:space="preserve">
<style type="text/css">
	.st0{fill:#FFC107;}
	.st1{fill:#009688;}
	.st2{fill:#DEA806;}
	.st3{fill:#008376;}
</style>
<g>
	<path class="st0" d="M87.3,67.5l-11-10.4c-0.7-0.6-1.6-0.8-2.5-0.5c-1.7,0.6-3.3,1.3-4.9,2c-6.1,2.6-11.8,5-18.9,5
		c-7.1,0-12.9-2.4-18.9-5c-1.6-0.7-3.2-1.4-4.9-2c-0.9-0.3-1.8-0.1-2.5,0.5l-11,10.4c-0.5,0.5-0.8,1.2-0.7,2
		c0.1,0.7,0.5,1.4,1.1,1.8c11.5,7,24.2,10.5,36.9,10.5s25.3-3.5,36.9-10.5c0.6-0.4,1-1,1.1-1.8C88.1,68.8,87.8,68.1,87.3,67.5
		L87.3,67.5z"/>
	<path class="st1" d="M87.2,51.7L51.6,18.8c-0.9-0.8-2.3-0.8-3.2,0L12.8,51.7c-0.5,0.4-0.8,1.1-0.8,1.7v15.8c0,0.9,0.6,1.8,1.4,2.2
		c0.9,0.4,1.9,0.2,2.6-0.5l10.9-10.4L50,39.4l23,21.2L84,71c0.4,0.4,1,0.7,1.6,0.7c0.3,0,0.6-0.1,0.9-0.2c0.9-0.4,1.4-1.2,1.4-2.2
		V53.4C88,52.8,87.7,52.1,87.2,51.7L87.2,51.7z"/>
	<path class="st2" d="M29.7,58.1l-2.8,2.5L16,71c-0.5,0.4-1,0.7-1.6,0.7c-0.3,0-0.6-0.1-0.9-0.2c-0.1,0-0.2-0.1-0.3-0.1
		c11.5,7,24.2,10.5,36.8,10.5V63.6c-7.1,0-12.9-2.4-18.9-5C30.6,58.4,30.1,58.3,29.7,58.1L29.7,58.1z"/>
	<path class="st3" d="M50,18.2c-0.6,0-1.2,0.2-1.6,0.6L12.8,51.7c-0.5,0.4-0.8,1.1-0.8,1.7v15.8c0,0.9,0.5,1.6,1.2,2.1
		c0.1,0,0.2,0.1,0.3,0.1c0.3,0.1,0.6,0.2,0.9,0.2c0.6,0,1.2-0.2,1.6-0.7l10.9-10.4l2.8-2.5L50,39.4V18.2z"/>
</g>
</svg>
