<?xml version="1.0" encoding="utf-8"?>
<!-- Generator: Adobe Illustrator 24.3.0, SVG Export Plug-In . SVG Version: 6.00 Build 0)  -->
<svg version="1.1" id="color" xmlns="http://www.w3.org/2000/svg" xmlns:xlink="http://www.w3.org/1999/xlink" x="0px" y="0px"
	 viewBox="0 0 100 100" style="enable-background:new 0 0 100 100;" xml:space="preserve">
<style type="text/css">
	.st0{fill:#009688;}
	.st1{fill:#FFC107;}
	.st2{fill:#008376;}
	.st3{fill:#DEA806;}
</style>
<g>
	<path class="st0" d="M87.2,49.1L51.6,15.8c-0.9-0.9-2.3-0.9-3.2,0L12.8,49.1c-0.5,0.4-0.8,1.1-0.8,1.7v15.8c0,0.9,0.6,1.8,1.4,2.2
		c0.9,0.4,1.9,0.2,2.6-0.4l34-31.6l34,31.6c0.4,0.4,1,0.6,1.6,0.6c0.3,0,0.6-0.1,0.9-0.2c0.9-0.4,1.4-1.2,1.4-2.2V50.8
		C88,50.1,87.7,49.5,87.2,49.1z"/>
	<path class="st1" d="M68.9,61.2c-0.3-0.8-1-1.5-1.9-1.6L56.7,58l-4.6-9.8c-0.8-1.7-3.5-1.7-4.3,0L43.3,58L33,59.6
		c-0.9,0.1-1.6,0.7-1.9,1.6c-0.3,0.8-0.1,1.8,0.6,2.4l7.5,7.7l-1.8,10.8c-0.1,0.9,0.2,1.8,1,2.3c0.7,0.5,1.7,0.6,2.5,0.1l9.1-5
		l9.1,5c0.4,0.2,0.8,0.3,1.1,0.3c0.5,0,1-0.1,1.4-0.4c0.7-0.5,1.1-1.4,1-2.3l-1.8-10.8l7.5-7.7C68.9,62.9,69.2,62,68.9,61.2z"/>
	<path class="st2" d="M50,15.2c-0.6,0-1.2,0.2-1.6,0.6L12.8,49.1c-0.5,0.4-0.8,1.1-0.8,1.7v15.8c0,0.9,0.6,1.8,1.4,2.2
		c0.3,0.1,0.6,0.2,0.9,0.2c0.6,0,1.2-0.2,1.6-0.6l34-31.6V15.2z"/>
	<path class="st3" d="M50,46.9c-0.9,0-1.8,0.4-2.2,1.3L43.3,58L33,59.6c-0.9,0.1-1.6,0.7-1.9,1.6c-0.3,0.8-0.1,1.8,0.6,2.4l7.5,7.7
		l-1.8,10.8c-0.1,0.9,0.2,1.8,1,2.3c0.4,0.3,0.9,0.4,1.4,0.4c0.4,0,0.8-0.1,1.2-0.3l9.1-5L50,46.9z"/>
</g>
</svg>
