<?xml version="1.0" encoding="utf-8"?>
<!-- Generator: Adobe Illustrator 24.3.0, SVG Export Plug-In . SVG Version: 6.00 Build 0)  -->
<svg version="1.1" id="color" xmlns="http://www.w3.org/2000/svg" xmlns:xlink="http://www.w3.org/1999/xlink" x="0px" y="0px"
	 viewBox="0 0 100 100" style="enable-background:new 0 0 100 100;" xml:space="preserve">
<style type="text/css">
	.st0{fill:#00796B;}
	.st1{fill:#4DB6AC;}
	.st2{fill:#009688;}
	.st3{fill:#00695D;}
	.st4{fill:#439E96;}
	.st5{fill:#008376;}
</style>
<g>
	<path class="st0" d="M80.1,23.2L50.8,12.2c-0.5-0.2-1.1-0.2-1.7,0L19.9,23.2c-0.9,0.4-1.5,1.2-1.5,2.2v12.7c0,0.8,0.4,1.5,1,2
		c0.6,0.4,1.5,0.5,2.2,0.3L50,29.6l28.4,10.8l0.8,0.2c0.5,0,0.9-0.1,1.4-0.4c0.6-0.4,1-1.2,1-2V25.5C81.7,24.5,81.1,23.6,80.1,23.2
		L80.1,23.2z"/>
	<path class="st1" d="M80.1,70.7L50.8,59.7c-0.5-0.2-1.1-0.2-1.7,0L19.9,70.7c-0.9,0.4-1.5,1.2-1.5,2.2v12.7c0,0.8,0.4,1.5,1,2
		c0.6,0.4,1.5,0.5,2.2,0.3L50,77.1l28.4,10.8l0.8,0.2c0.5,0,0.9-0.1,1.4-0.4c0.6-0.4,1-1.2,1-2V73C81.7,72,81.1,71.1,80.1,70.7
		L80.1,70.7z"/>
	<path class="st2" d="M80.1,47L50.8,35.9c-0.5-0.2-1.1-0.2-1.7,0L19.9,47c-0.9,0.4-1.5,1.2-1.5,2.2v12.7c0,0.8,0.4,1.5,1,2
		c0.6,0.4,1.5,0.5,2.2,0.3L50,53.3l28.4,10.8l0.8,0.2c0.5,0,0.9-0.1,1.4-0.4c0.6-0.4,1-1.2,1-2V49.2C81.7,48.2,81.1,47.3,80.1,47
		L80.1,47z"/>
	<path class="st3" d="M50,12L50,12c-0.3,0-0.6,0.1-0.8,0.2L19.9,23.2c-0.9,0.4-1.5,1.2-1.5,2.2v12.7c0,0.8,0.4,1.5,1,2
		c0.4,0.3,0.9,0.4,1.4,0.4c0.3,0,0.6-0.1,0.8-0.2L50,29.6V12z"/>
	<path class="st4" d="M50,59.5c-0.3,0-0.6,0.1-0.8,0.2L19.9,70.7c-0.9,0.4-1.5,1.2-1.5,2.2v12.7c0,0.8,0.4,1.5,1,2
		c0.4,0.3,0.9,0.4,1.4,0.4c0.3,0,0.6-0.1,0.8-0.2L50,77.1L50,59.5L50,59.5z"/>
	<path class="st5" d="M50,35.8c-0.3,0-0.6,0.1-0.8,0.2L19.9,47c-0.9,0.4-1.5,1.2-1.5,2.2v12.7c0,0.8,0.4,1.5,1,2
		c0.4,0.3,0.9,0.4,1.4,0.4c0.3,0,0.6-0.1,0.8-0.2L50,53.3L50,35.8L50,35.8z"/>
</g>
</svg>
