<svg id="color" enable-background="new 0 0 24 24" height="512" viewBox="0 0 24 24" width="512" xmlns="http://www.w3.org/2000/svg"><path d="m23.767 17.594-3.46-3.29c-.21-.2-.519-.262-.79-.154-.523.204-1.031.419-1.533.631-1.921.812-3.736 1.577-5.983 1.577-2.248 0-4.062-.766-5.983-1.577-.502-.212-1.01-.427-1.533-.631-.271-.107-.579-.046-.79.154l-3.46 3.29c-.169.161-.254.392-.229.624.025.231.156.439.355.561 3.645 2.22 7.642 3.329 11.64 3.329s7.996-1.109 11.64-3.329c.199-.121.331-.329.355-.561.024-.233-.06-.463-.229-.624z" fill="#ffc107"/><path d="m23.759 12.587-11.25-10.388c-.287-.266-.73-.266-1.018 0l-11.25 10.388c-.154.142-.241.342-.241.551v5c0 .3.179.571.454.689s.595.061.812-.146l3.451-3.282 7.283-6.693 7.273 6.686 3.46 3.29c.142.135.328.206.517.206.1 0 .201-.019.296-.061.275-.118.454-.39.454-.689v-5c0-.209-.087-.409-.241-.551z" fill="#009688"/><path d="m5.588 14.6-.87.8-3.451 3.282c-.143.135-.329.206-.517.206-.1 0-.2-.02-.295-.061-.028-.012-.055-.026-.081-.04 3.64 2.214 7.633 3.32 11.626 3.32v-5.75c-2.248 0-4.062-.766-5.983-1.577-.143-.06-.286-.12-.429-.18z" fill="#dea806"/><path d="m12 2c-.183 0-.365.066-.509.199l-11.25 10.388c-.154.142-.241.342-.241.551v5c0 .269.144.516.374.649.026.015.053.029.081.04.095.041.195.061.295.061.189 0 .375-.071.517-.206l3.451-3.282.87-.8 6.412-5.894z" fill="#008376"/></svg>