<svg id="color" enable-background="new 0 0 24 24" height="512" viewBox="0 0 24 24" width="512" xmlns="http://www.w3.org/2000/svg"><path d="m24 17.94v4.31c0 .3-.18.57-.45.69-.1.04-.2.06-.3.06-.19 0-.37-.07-.51-.2l-10.74-9.97-10.74 9.97c-.22.2-.54.26-.81.14s-.45-.39-.45-.69v-4.31l12-11.14z" fill="#4db6ac"/><path d="m24 12.25v5.69l-12-11.14-12 11.14v-5.69c0-.21.09-.41.24-.55l11.25-10.5c.29-.271.729-.271 1.02 0l11.25 10.5c.15.14.24.34.24.55z" fill="#009688"/><path d="m12 6.8-12 11.14v4.31c0 .3.18.57.45.69.093.041.193.061.292.061.187 0 .374-.071.518-.202l10.74-9.969z" fill="#439e96"/><path d="m12 .997c-.182 0-.365.068-.51.203l-11.25 10.5c-.15.14-.24.34-.24.55v5.69l12-11.14z" fill="#008376"/></svg>