<svg id="color" enable-background="new 0 0 24 24" height="512" viewBox="0 0 24 24" width="512" xmlns="http://www.w3.org/2000/svg"><path d="m23.762 11.702-11.25-10.5c-.289-.27-.734-.27-1.023 0l-11.25 10.5c-.153.142-.239.34-.239.548v5c0 .298.177.568.45.687.274.119.591.065.811-.138l10.739-9.971 10.739 9.972c.142.131.325.2.511.2.102 0 .203-.02.3-.062.273-.119.45-.39.45-.687v-5c0-.209-.086-.407-.238-.549z" fill="#009688"/><path d="m17.961 15.522c-.089-.267-.319-.461-.598-.503l-3.232-.494-1.452-3.094c-.246-.527-1.111-.527-1.357 0l-1.452 3.094-3.233.495c-.278.042-.509.236-.598.503-.09.267-.022.561.174.762l2.361 2.42-.56 3.425c-.046.284.073.568.309.734.234.165.543.18.795.043l2.882-1.594 2.882 1.593c.113.063.238.094.363.094.151 0 .303-.046.432-.137.235-.166.355-.45.309-.734l-.56-3.425 2.361-2.42c.196-.201.264-.495.174-.762z" fill="#ffc107"/><path d="m12 1c-.184 0-.367.067-.512.202l-11.25 10.5c-.152.142-.238.34-.238.548v5c0 .298.177.568.45.687.097.043.199.063.3.063.186 0 .368-.069.51-.2l10.74-9.972z" fill="#008376"/><path d="m12 11.036c-.278 0-.556.132-.679.396l-1.452 3.094-3.232.494c-.278.042-.509.236-.598.503-.09.267-.022.561.174.762l2.361 2.42-.56 3.425c-.046.284.073.568.309.734.128.09.279.136.43.136.125 0 .251-.031.365-.093l2.882-1.594z" fill="#dea806"/></svg>