<svg id="color" enable-background="new 0 0 24 24" height="512" viewBox="0 0 24 24" width="512" xmlns="http://www.w3.org/2000/svg"><path d="m21.516 3.548-9.25-3.5c-.172-.064-.359-.064-.531 0l-9.25 3.5c-.292.111-.485.39-.485.702v4c0 .247.121.477.323.617.204.14.463.17.692.085l8.985-3.4 8.984 3.4.266.048c.15 0 .299-.045.427-.133.202-.14.323-.37.323-.617v-4c0-.312-.193-.591-.484-.702z" fill="#00796b"/><path d="m21.516 18.548-9.25-3.5c-.172-.064-.359-.064-.531 0l-9.25 3.5c-.292.111-.485.39-.485.702v2c0 1.517 1.233 2.75 2.75 2.75h14.5c1.517 0 2.75-1.233 2.75-2.75v-2c0-.312-.193-.591-.484-.702z" fill="#4db6ac"/><path d="m21.516 11.048-9.25-3.5c-.172-.064-.359-.064-.531 0l-9.25 3.5c-.292.111-.485.39-.485.702v4c0 .247.121.477.323.617.204.141.463.171.692.084l8.984-3.4 8.984 3.4.267.049c.15 0 .299-.045.427-.133.202-.14.323-.37.323-.617v-4c0-.312-.193-.591-.484-.702z" fill="#009688"/><path d="m12 0c-.09 0-.18.016-.266.048l-9.25 3.5c-.291.111-.484.39-.484.702v4c0 .247.121.477.323.617.128.088.277.132.428.132.09 0 .179-.016.265-.048l8.984-3.399z" fill="#00695d"/><path d="m12 15c-.09 0-.18.016-.266.048l-9.25 3.5c-.291.111-.484.39-.484.702v2c0 1.517 1.233 2.75 2.75 2.75h7.25z" fill="#439e96"/><path d="m12 7.5c-.09 0-.18.016-.266.048l-9.25 3.5c-.291.111-.484.39-.484.702v4c0 .247.121.477.323.617.128.088.277.133.427.133.09 0 .18-.016.265-.048l8.984-3.4v-5.552z" fill="#008376"/></svg>