<svg id="color" enable-background="new 0 0 24 24" height="512" viewBox="0 0 24 24" width="512" xmlns="http://www.w3.org/2000/svg"><path d="m23.762 13.702-11.25-10.5c-.288-.27-.735-.27-1.023 0l-11.25 10.5c-.153.142-.239.34-.239.548v5c0 .298.177.568.45.688.274.119.591.065.81-.138l10.74-9.972 10.74 9.972c.142.131.325.2.51.2.102 0 .204-.021.3-.063.273-.119.45-.39.45-.688v-5c0-.207-.086-.405-.238-.547z" fill="#009688"/><path d="m12 3c-.184 0-.368.067-.512.202l-11.25 10.5c-.152.142-.238.34-.238.548v5c0 .298.177.568.45.688.097.042.199.062.301.062.186 0 .368-.069.51-.2l10.739-9.972z" fill="#008376"/></svg>