<svg id="color" enable-background="new 0 0 24 24" height="512" viewBox="0 0 24 24" width="512" xmlns="http://www.w3.org/2000/svg"><path d="m21.766 20.192-2.708-2.564c-.211-.199-.517-.257-.788-.154-2.11.823-4.332 1.626-6.27 1.626-1.937 0-4.16-.803-6.27-1.626-.27-.104-.577-.045-.788.154l-2.708 2.564c-.17.161-.255.392-.23.625.025.232.157.439.357.561 2.882 1.748 6.261 2.622 9.639 2.622s6.756-.874 9.639-2.622c.2-.122.332-.329.357-.561.025-.233-.06-.463-.23-.625z" fill="#ffc107"/><path d="m22 18.02v2.721c0 .29-.17.56-.44.68-.1.05-.21.07-.31.07-.18 0-.36-.07-.5-.19l-8.75-7.841-8.75 7.84c-.22.19-.54.24-.81.12s-.44-.39-.44-.68v-2.72l10-9z" fill="#4db6ac"/><path d="m22 12.88v5.14l-10-9-10 9v-5.14l10-8.94z" fill="#009688"/><path d="m22 8.82v4.06l-10-8.94-10 8.94v-4.06c0-.22.09-.42.26-.57l9.25-8.07c.28-.239.7-.239.98 0l9.25 8.07c.17.15.26.35.26.57z" fill="#00796b"/><path d="m6.986 17.952-3.736 3.348c-.14.121-.32.185-.502.185-.105 0-.21-.021-.308-.065-.023-.01-.046-.022-.068-.034 2.826 1.711 6.127 2.582 9.436 2.614h.192v-4.899c-1.556 0-3.296-.518-5.014-1.149z" fill="#dea806"/><path d="m12 9.02-10 9v2.721c0 .265.142.513.372.645.022.012.044.024.068.034.099.044.204.065.308.065.182 0 .362-.064.502-.185l3.736-3.348 5.014-4.492z" fill="#439e96"/><path d="m12 3.94-10 8.94v5.14l10-9z" fill="#008376"/><path d="m12 0c-.175 0-.35.06-.49.179l-9.25 8.071c-.17.15-.26.35-.26.57v4.06l10-8.94z" fill="#00695d"/></svg>