<svg id="color" enable-background="new 0 0 24 24" height="512" viewBox="0 0 24 24" width="512" xmlns="http://www.w3.org/2000/svg"><path d="m23 15.45v3.84c0 .3-.18.56-.45.68-.09.05-.2.07-.3.07-.18 0-.37-.07-.51-.2l-9.74-8.94-9.74 8.94c-.22.2-.54.25-.81.13s-.45-.38-.45-.68v-3.84l11-10.09z" fill="#4db6ac"/><path d="m23 10.24v5.21l-11-10.09-11 10.09v-5.21c0-.21.09-.41.24-.55l10.25-9.45c.29-.27.729-.27 1.02 0l10.25 9.45c.15.14.24.34.24.55z" fill="#009688"/><path d="m16.961 17.759c-.089-.267-.319-.461-.598-.503l-2.541-.389-1.144-2.436c-.246-.527-1.111-.527-1.357 0l-1.144 2.436-2.541.389c-.278.042-.509.236-.598.503-.09.267-.022.561.174.762l1.861 1.907-.441 2.701c-.046.284.073.568.309.734.234.165.544.181.795.043l2.264-1.251 2.264 1.251c.113.063.238.094.363.094.151 0 .303-.046.432-.137.235-.166.354-.45.309-.734l-.441-2.701 1.861-1.907c.195-.202.263-.496.173-.762z" fill="#ffc107"/><path d="m12 5.36-11 10.09v3.84c0 .3.18.56.45.68.097.043.201.065.305.065.183 0 .365-.067.505-.194l9.74-8.941z" fill="#439e96"/><path d="m12 .037c-.182 0-.365.068-.51.203l-10.25 9.45c-.15.14-.24.34-.24.55v5.21l11-10.09z" fill="#008376"/><path d="m12 14.036c-.278 0-.556.132-.679.396l-1.144 2.436-2.541.389c-.278.042-.509.236-.598.503-.09.267-.022.561.174.762l1.861 1.907-.441 2.701c-.046.284.073.568.309.734.129.09.28.136.431.136.125 0 .25-.031.364-.093l2.264-1.252z" fill="#dea806"/></svg>