<?xml version="1.0" encoding="utf-8"?>
<!-- Generator: Adobe Illustrator 24.3.0, SVG Export Plug-In . SVG Version: 6.00 Build 0)  -->
<svg version="1.1" id="color" xmlns="http://www.w3.org/2000/svg" xmlns:xlink="http://www.w3.org/1999/xlink" x="0px" y="0px"
	 viewBox="0 0 100 100" style="enable-background:new 0 0 100 100;" xml:space="preserve">
<style type="text/css">
	.st0{fill:#4DB6AC;}
	.st1{fill:#009688;}
	.st2{fill:#439E96;}
	.st3{fill:#008376;}
</style>
<g>
	<path class="st0" d="M88,68.8v13.6c0,0.9-0.6,1.8-1.4,2.2c-0.3,0.1-0.6,0.2-0.9,0.2c-0.6,0-1.2-0.2-1.6-0.6L50,52.6L16,84.2
		c-0.7,0.6-1.7,0.8-2.6,0.4c-0.9-0.4-1.4-1.2-1.4-2.2V68.8l38-35.3L88,68.8z"/>
	<path class="st1" d="M88,50.8v18L50,33.5L12,68.8v-18c0-0.7,0.3-1.3,0.8-1.7l35.6-33.2c0.9-0.9,2.3-0.9,3.2,0l35.6,33.2
		C87.7,49.5,88,50.1,88,50.8z"/>
	<path class="st2" d="M50,33.5L12,68.8v13.6c0,0.9,0.6,1.8,1.4,2.2c0.3,0.1,0.6,0.2,0.9,0.2c0.6,0,1.2-0.2,1.6-0.6l34-31.6V33.5z"/>
	<path class="st3" d="M50,15.2c-0.6,0-1.2,0.2-1.6,0.6L12.8,49.1c-0.5,0.4-0.8,1.1-0.8,1.7v18l38-35.3V15.2z"/>
</g>
</svg>
