<?xml version="1.0" encoding="utf-8"?>
<!-- Generator: Adobe Illustrator 24.3.0, SVG Export Plug-In . SVG Version: 6.00 Build 0)  -->
<svg version="1.1" id="color" xmlns="http://www.w3.org/2000/svg" xmlns:xlink="http://www.w3.org/1999/xlink" x="0px" y="0px"
	 viewBox="0 0 100 100" style="enable-background:new 0 0 100 100;" xml:space="preserve">
<style type="text/css">
	.st0{fill:#009688;}
	.st1{fill:#008376;}
</style>
<g>
	<path class="st0" d="M87.2,57L51.6,23.7c-0.9-0.9-2.3-0.9-3.2,0L12.8,57C12.3,57.4,12,58,12,58.7v15.8c0,0.9,0.6,1.8,1.4,2.2
		c0.9,0.4,1.9,0.2,2.6-0.4l34-31.6l34,31.6c0.4,0.4,1,0.6,1.6,0.6c0.3,0,0.6-0.1,0.9-0.2c0.9-0.4,1.4-1.2,1.4-2.2V58.7
		C88,58,87.7,57.4,87.2,57L87.2,57z"/>
	<path class="st1" d="M50,23.1c-0.6,0-1.2,0.2-1.6,0.6L12.8,57C12.3,57.4,12,58,12,58.7v15.8c0,0.9,0.6,1.8,1.4,2.2
		c0.3,0.1,0.6,0.2,1,0.2c0.6,0,1.2-0.2,1.6-0.6l34-31.6V23.1z"/>
</g>
</svg>
