<?xml version="1.0" encoding="utf-8"?>
<!-- Generator: Adobe Illustrator 24.3.0, SVG Export Plug-In . SVG Version: 6.00 Build 0)  -->
<svg version="1.1" id="color" xmlns="http://www.w3.org/2000/svg" xmlns:xlink="http://www.w3.org/1999/xlink" x="0px" y="0px"
	 viewBox="0 0 100 100" style="enable-background:new 0 0 100 100;" xml:space="preserve">
<style type="text/css">
	.st0{fill:#FFC107;}
	.st1{fill:#4DB6AC;}
	.st2{fill:#009688;}
	.st3{fill:#00796B;}
	.st4{fill:#DEA806;}
	.st5{fill:#439E96;}
	.st6{fill:#008376;}
	.st7{fill:#00695D;}
</style>
<g>
	<path class="st0" d="M80.9,75.9l-8.6-8.1c-0.7-0.6-1.6-0.8-2.5-0.5c-6.7,2.6-13.7,5.1-19.9,5.1c-6.1,0-13.2-2.5-19.9-5.1
		c-0.9-0.3-1.8-0.1-2.5,0.5l-8.6,8.1c-0.5,0.5-0.8,1.2-0.7,2c0.1,0.7,0.5,1.4,1.1,1.8C28.6,85.2,39.3,88,50,88s21.4-2.8,30.5-8.3
		c0.6-0.4,1.1-1,1.1-1.8C81.7,77.2,81.5,76.5,80.9,75.9z"/>
	<path class="st1" d="M81.7,69.1v8.6c0,0.9-0.5,1.8-1.4,2.2c-0.3,0.2-0.7,0.2-1,0.2c-0.6,0-1.1-0.2-1.6-0.6L50,54.6L22.3,79.5
		c-0.7,0.6-1.7,0.8-2.6,0.4c-0.9-0.4-1.4-1.2-1.4-2.2v-8.6L50,40.6L81.7,69.1z"/>
	<path class="st2" d="M81.7,52.8v16.3L50,40.6L18.3,69.1V52.8L50,24.5L81.7,52.8z"/>
	<path class="st3" d="M81.7,39.9v12.9L50,24.5L18.3,52.8V39.9c0-0.7,0.3-1.3,0.8-1.8l29.3-25.6c0.9-0.8,2.2-0.8,3.1,0l29.3,25.6
		C81.4,38.6,81.7,39.2,81.7,39.9z"/>
	<path class="st4" d="M34.1,68.8L22.3,79.5c-0.4,0.4-1,0.6-1.6,0.6c-0.3,0-0.7-0.1-1-0.2c-0.1,0-0.1-0.1-0.2-0.1
		c8.9,5.4,19.4,8.2,29.9,8.3H50V72.5C45.1,72.5,39.6,70.8,34.1,68.8L34.1,68.8z"/>
	<path class="st5" d="M50,40.6L18.3,69.1v8.6c0,0.8,0.4,1.6,1.2,2c0.1,0,0.1,0.1,0.2,0.1c0.3,0.1,0.6,0.2,1,0.2
		c0.6,0,1.1-0.2,1.6-0.6l11.8-10.6L50,54.6V40.6z"/>
	<path class="st6" d="M50,24.5L18.3,52.8v16.3L50,40.6V24.5z"/>
	<path class="st7" d="M50,12c-0.6,0-1.1,0.2-1.6,0.6L19.2,38.1c-0.5,0.5-0.8,1.1-0.8,1.8v12.9L50,24.5V12z"/>
</g>
</svg>
