<?xml version="1.0" encoding="utf-8"?>
<!-- Generator: Adobe Illustrator 24.3.0, SVG Export Plug-In . SVG Version: 6.00 Build 0)  -->
<svg version="1.1" id="color" xmlns="http://www.w3.org/2000/svg" xmlns:xlink="http://www.w3.org/1999/xlink" x="0px" y="0px"
	 viewBox="0 0 100 100" style="enable-background:new 0 0 100 100;" xml:space="preserve">
<style type="text/css">
	.st0{fill:#4DB6AC;}
	.st1{fill:#009688;}
	.st2{fill:#FFC107;}
	.st3{fill:#439E96;}
	.st4{fill:#008376;}
	.st5{fill:#DEA806;}
</style>
<g>
	<path class="st0" d="M84.9,61.3v12.2c0,1-0.6,1.8-1.4,2.2c-0.3,0.2-0.6,0.2-1,0.2c-0.6,0-1.2-0.2-1.6-0.6L50,46.8L19.1,75.2
		c-0.7,0.6-1.7,0.8-2.6,0.4c-0.9-0.4-1.4-1.2-1.4-2.2V61.3l34.9-32L84.9,61.3z"/>
	<path class="st1" d="M84.9,44.8v16.5L50,29.3l-34.9,32V44.8c0-0.7,0.3-1.3,0.8-1.7l32.5-30c0.9-0.9,2.3-0.9,3.2,0l32.5,30
		C84.6,43.5,84.9,44.1,84.9,44.8z"/>
	<path class="st2" d="M65.7,68.6c-0.3-0.8-1-1.5-1.9-1.6l-8.1-1.2L52.2,58c-0.8-1.7-3.5-1.7-4.3,0l-3.6,7.7L36.2,67
		c-0.9,0.1-1.6,0.7-1.9,1.6c-0.3,0.8-0.1,1.8,0.6,2.4l5.9,6l-1.4,8.6c-0.1,0.9,0.2,1.8,1,2.3c0.7,0.5,1.7,0.6,2.5,0.1l7.2-4l7.2,4
		c0.4,0.2,0.8,0.3,1.2,0.3c0.5,0,1-0.1,1.4-0.4c0.7-0.5,1.1-1.4,1-2.3l-1.4-8.6l5.9-6C65.8,70.4,66,69.4,65.7,68.6z"/>
	<path class="st3" d="M50,29.3l-34.9,32v12.2c0,1,0.6,1.8,1.4,2.2c0.3,0.1,0.6,0.2,1,0.2c0.6,0,1.2-0.2,1.6-0.6L50,46.8V29.3z"/>
	<path class="st4" d="M50,12.4c-0.6,0-1.2,0.2-1.6,0.6L15.9,43c-0.5,0.4-0.8,1.1-0.8,1.7v16.5l34.9-32V12.4z"/>
	<path class="st5" d="M50,56.8c-0.9,0-1.8,0.4-2.2,1.3l-3.6,7.7L36.2,67c-0.9,0.1-1.6,0.7-1.9,1.6c-0.3,0.8-0.1,1.8,0.6,2.4l5.9,6
		l-1.4,8.6c-0.1,0.9,0.2,1.8,1,2.3c0.4,0.3,0.9,0.4,1.4,0.4c0.4,0,0.8-0.1,1.2-0.3l7.2-4V56.8z"/>
</g>
</svg>
